<svg width="24" height="25" viewBox="0 0 24 25" fill="none" xmlns="http://www.w3.org/2000/svg">
<g clip-path="url(#clip0_67_1250)">
<path d="M15.402 21.0649V14.0989H17.735L18.084 11.3909H15.402V9.66294C15.402 8.87894 15.62 8.34394 16.744 8.34394H18.178V5.92194C17.4838 5.84829 16.7861 5.81257 16.088 5.81494C14.021 5.81494 12.606 7.07694 12.606 9.39494V11.3909H10.268V14.0989H12.606V21.0649H4C3.73478 21.0649 3.48043 20.9596 3.29289 20.772C3.10536 20.5845 3 20.3302 3 20.0649V4.06494C3 3.79972 3.10536 3.54537 3.29289 3.35783C3.48043 3.1703 3.73478 3.06494 4 3.06494H20C20.2652 3.06494 20.5196 3.1703 20.7071 3.35783C20.8946 3.54537 21 3.79972 21 4.06494V20.0649C21 20.3302 20.8946 20.5845 20.7071 20.772C20.5196 20.9596 20.2652 21.0649 20 21.0649H15.402Z" fill="#2F58B0"/>
</g>
<defs>
<clipPath id="clip0_67_1250">
<rect width="24" height="24" fill="white" transform="translate(0 0.0649414)"/>
</clipPath>
</defs>
</svg>
