<svg width="24" height="25" viewBox="0 0 24 25" fill="none" xmlns="http://www.w3.org/2000/svg">
<g clip-path="url(#clip0_67_1255)">
<path d="M12 2.06494C14.717 2.06494 15.056 2.07494 16.122 2.12494C17.187 2.17494 17.912 2.34194 18.55 2.58994C19.21 2.84394 19.766 3.18794 20.322 3.74294C20.8305 4.24284 21.224 4.84753 21.475 5.51494C21.722 6.15194 21.89 6.87794 21.94 7.94294C21.987 9.00894 22 9.34794 22 12.0649C22 14.7819 21.99 15.1209 21.94 16.1869C21.89 17.2519 21.722 17.9769 21.475 18.6149C21.2247 19.2827 20.8311 19.8876 20.322 20.3869C19.822 20.8953 19.2173 21.2887 18.55 21.5399C17.913 21.7869 17.187 21.9549 16.122 22.0049C15.056 22.0519 14.717 22.0649 12 22.0649C9.283 22.0649 8.944 22.0549 7.878 22.0049C6.813 21.9549 6.088 21.7869 5.45 21.5399C4.78233 21.2894 4.17753 20.8959 3.678 20.3869C3.16941 19.8871 2.77593 19.2824 2.525 18.6149C2.277 17.9779 2.11 17.2519 2.06 16.1869C2.013 15.1209 2 14.7819 2 12.0649C2 9.34794 2.01 9.00894 2.06 7.94294C2.11 6.87694 2.277 6.15294 2.525 5.51494C2.77524 4.84712 3.1688 4.24226 3.678 3.74294C4.17767 3.23417 4.78243 2.84067 5.45 2.58994C6.088 2.34194 6.812 2.17494 7.878 2.12494C8.944 2.07794 9.283 2.06494 12 2.06494ZM12 7.06494C10.6739 7.06494 9.40215 7.59173 8.46447 8.52941C7.52678 9.46709 7 10.7389 7 12.0649C7 13.391 7.52678 14.6628 8.46447 15.6005C9.40215 16.5382 10.6739 17.0649 12 17.0649C13.3261 17.0649 14.5979 16.5382 15.5355 15.6005C16.4732 14.6628 17 13.391 17 12.0649C17 10.7389 16.4732 9.46709 15.5355 8.52941C14.5979 7.59173 13.3261 7.06494 12 7.06494ZM18.5 6.81494C18.5 6.48342 18.3683 6.16548 18.1339 5.93106C17.8995 5.69664 17.5815 5.56494 17.25 5.56494C16.9185 5.56494 16.6005 5.69664 16.3661 5.93106C16.1317 6.16548 16 6.48342 16 6.81494C16 7.14646 16.1317 7.4644 16.3661 7.69882C16.6005 7.93325 16.9185 8.06494 17.25 8.06494C17.5815 8.06494 17.8995 7.93325 18.1339 7.69882C18.3683 7.4644 18.5 7.14646 18.5 6.81494ZM12 9.06494C12.7956 9.06494 13.5587 9.38101 14.1213 9.94362C14.6839 10.5062 15 11.2693 15 12.0649C15 12.8606 14.6839 13.6237 14.1213 14.1863C13.5587 14.7489 12.7956 15.0649 12 15.0649C11.2044 15.0649 10.4413 14.7489 9.87868 14.1863C9.31607 13.6237 9 12.8606 9 12.0649C9 11.2693 9.31607 10.5062 9.87868 9.94362C10.4413 9.38101 11.2044 9.06494 12 9.06494Z" fill="#2F58B0"/>
</g>
<defs>
<clipPath id="clip0_67_1255">
<rect width="24" height="24" fill="white" transform="translate(0 0.0649414)"/>
</clipPath>
</defs>
</svg>
