<svg width="24" height="25" viewBox="0 0 24 25" fill="none" xmlns="http://www.w3.org/2000/svg">
<g clip-path="url(#clip0_67_1259)">
<path d="M22.1623 5.72087C21.3989 6.05856 20.5893 6.28034 19.7603 6.37887C20.634 5.8563 21.288 5.03388 21.6003 4.06487C20.7803 4.55287 19.8813 4.89487 18.9443 5.07987C18.3149 4.40645 17.4807 3.95983 16.5713 3.80945C15.6618 3.65907 14.7282 3.81336 13.9156 4.24832C13.1029 4.68328 12.4567 5.37455 12.0774 6.21466C11.6981 7.05477 11.607 7.99665 11.8183 8.89387C10.1554 8.81052 8.52863 8.37839 7.04358 7.62553C5.55854 6.87267 4.24842 5.81592 3.1983 4.52387C2.82659 5.16232 2.63125 5.88809 2.6323 6.62687C2.6323 8.07687 3.3703 9.35787 4.4923 10.1079C3.82831 10.087 3.17893 9.90765 2.5983 9.58487V9.63687C2.5985 10.6026 2.93267 11.5385 3.54414 12.2859C4.15562 13.0334 5.00678 13.5463 5.9533 13.7379C5.33691 13.9049 4.6906 13.9295 4.0633 13.8099C4.33016 14.6411 4.8503 15.3681 5.55089 15.889C6.25147 16.4099 7.09742 16.6987 7.9703 16.7149C7.10278 17.3962 6.10947 17.8999 5.04718 18.197C3.98488 18.4942 2.87442 18.5791 1.7793 18.4469C3.69099 19.6763 5.91639 20.329 8.1893 20.3269C15.8823 20.3269 20.0893 13.9539 20.0893 8.42687C20.0893 8.24687 20.0843 8.06487 20.0763 7.88687C20.8952 7.29504 21.6019 6.56189 22.1633 5.72187L22.1623 5.72087Z" fill="#2F58B0"/>
</g>
<defs>
<clipPath id="clip0_67_1259">
<rect width="24" height="24" fill="white" transform="translate(0 0.0649414)"/>
</clipPath>
</defs>
</svg>
