<svg width="36" height="36" viewBox="0 0 36 36" fill="none" xmlns="http://www.w3.org/2000/svg">
<rect width="36" height="36" rx="18" fill="#B0A32F"/>
<g clip-path="url(#clip0_152_1817)">
<path d="M18 28C12.477 28 8 23.523 8 18C8 12.477 12.477 8 18 8C23.523 8 28 12.477 28 18C28 23.523 23.523 28 18 28ZM14 19C14 20.0609 14.4214 21.0783 15.1716 21.8284C15.9217 22.5786 16.9391 23 18 23C19.0609 23 20.0783 22.5786 20.8284 21.8284C21.5786 21.0783 22 20.0609 22 19H14ZM14 17C14.3978 17 14.7794 16.842 15.0607 16.5607C15.342 16.2794 15.5 15.8978 15.5 15.5C15.5 15.1022 15.342 14.7206 15.0607 14.4393C14.7794 14.158 14.3978 14 14 14C13.6022 14 13.2206 14.158 12.9393 14.4393C12.658 14.7206 12.5 15.1022 12.5 15.5C12.5 15.8978 12.658 16.2794 12.9393 16.5607C13.2206 16.842 13.6022 17 14 17ZM22 17C22.3978 17 22.7794 16.842 23.0607 16.5607C23.342 16.2794 23.5 15.8978 23.5 15.5C23.5 15.1022 23.342 14.7206 23.0607 14.4393C22.7794 14.158 22.3978 14 22 14C21.6022 14 21.2206 14.158 20.9393 14.4393C20.658 14.7206 20.5 15.1022 20.5 15.5C20.5 15.8978 20.658 16.2794 20.9393 16.5607C21.2206 16.842 21.6022 17 22 17Z" fill="white"/>
</g>
<defs>
<clipPath id="clip0_152_1817">
<rect width="24" height="24" fill="white" transform="translate(6 6)"/>
</clipPath>
</defs>
</svg>
