<svg width="36" height="36" viewBox="0 0 36 36" fill="none" xmlns="http://www.w3.org/2000/svg">
<rect width="36" height="36" rx="18" fill="#B02FA3"/>
<g clip-path="url(#clip0_152_1807)">
<path d="M26.0829 16.5L27.2849 17.221C27.359 17.2654 27.4204 17.3283 27.463 17.4034C27.5056 17.4786 27.528 17.5636 27.528 17.65C27.528 17.7364 27.5056 17.8214 27.463 17.8966C27.4204 17.9718 27.359 18.0346 27.2849 18.079L17.9999 23.65L8.71485 18.079C8.6407 18.0346 8.57932 17.9718 8.5367 17.8966C8.49408 17.8214 8.47168 17.7364 8.47168 17.65C8.47168 17.5636 8.49408 17.4786 8.5367 17.4034C8.57932 17.3283 8.6407 17.2654 8.71485 17.221L9.91685 16.5L17.9999 21.35L26.0829 16.5ZM26.0829 21.2L27.2849 21.921C27.359 21.9654 27.4204 22.0283 27.463 22.1034C27.5056 22.1786 27.528 22.2636 27.528 22.35C27.528 22.4364 27.5056 22.5214 27.463 22.5966C27.4204 22.6718 27.359 22.7346 27.2849 22.779L18.5149 28.041C18.3593 28.1345 18.1813 28.1838 17.9999 28.1838C17.8184 28.1838 17.6404 28.1345 17.4849 28.041L8.71485 22.779C8.6407 22.7346 8.57932 22.6718 8.5367 22.5966C8.49408 22.5214 8.47168 22.4364 8.47168 22.35C8.47168 22.2636 8.49408 22.1786 8.5367 22.1034C8.57932 22.0283 8.6407 21.9654 8.71485 21.921L9.91685 21.2L17.9999 26.05L26.0829 21.2ZM18.5139 7.30901L27.2849 12.571C27.359 12.6154 27.4204 12.6783 27.463 12.7534C27.5056 12.8286 27.528 12.9136 27.528 13C27.528 13.0864 27.5056 13.1714 27.463 13.2466C27.4204 13.3218 27.359 13.3846 27.2849 13.429L17.9999 19L8.71485 13.429C8.6407 13.3846 8.57932 13.3218 8.5367 13.2466C8.49408 13.1714 8.47168 13.0864 8.47168 13C8.47168 12.9136 8.49408 12.8286 8.5367 12.7534C8.57932 12.6783 8.6407 12.6154 8.71485 12.571L17.4849 7.30901C17.6404 7.21557 17.8184 7.1662 17.9999 7.1662C18.1813 7.1662 18.3593 7.21557 18.5149 7.30901H18.5139Z" fill="white"/>
</g>
<defs>
<clipPath id="clip0_152_1807">
<rect width="24" height="24" fill="white" transform="translate(6 6)"/>
</clipPath>
</defs>
</svg>
